<?xml version="1.0" encoding="UTF-8"?><svg id="Ebene_1" xmlns="http://www.w3.org/2000/svg" viewBox="0 0 481.36 69.69"><defs><style>.cls-1{fill:#fff;}</style></defs><g><g><path class="cls-1" d="M145.63,68.26V31.75c.1-12.14-7.95-20.6-20.29-20.6-7.55,0-13.46,2.75-17.13,9.38h-.71c-3.16-5.61-9.08-9.38-17.03-9.38s-13.26,4.08-15.71,8.77h-.71v-7.25l-11.01,1.65v54.04h11.22V35.43c0-8.26,5.51-13.87,12.54-13.87s12.03,4.9,12.03,12.65v34.06h11.22V35.73c0-8.97,5.61-14.18,12.65-14.18s11.73,4.9,11.73,13.97v32.74h11.22Z"/><path class="cls-1" d="M238.64,68.26V31.75c0-12.14-8.06-20.6-20.29-20.6-7.55,0-13.46,2.75-17.13,9.38h-.71c-3.16-5.61-9.08-9.38-17.03-9.38s-13.26,4.08-15.71,8.77h-.71v-7.33l-11.01,1.65v54.12h11.22V35.43c0-8.26,5.51-13.87,12.54-13.87s12.03,4.9,12.03,12.65v34.06h11.22V35.73c0-8.97,5.61-14.18,12.65-14.18s11.73,4.9,11.73,13.97v32.74h11.22Z"/><path class="cls-1" d="M27.84,11.15C11.93,11.15,0,22.88,0,40.52c0,16.73,11.32,29.17,28.05,29.17,13.77,0,23.66-7.45,26.52-18.26l-11.73,1.84c-2.75,4.39-8.16,7.04-14.48,7.04-9.28,0-15.5-5.51-16.93-13.77l43.65-6.53v-.1c.1-16.01-9.79-28.76-27.23-28.76M11.32,36.55c.1-.82,.1-1.22,.1-1.22,.82-8.77,7.85-14.79,16.42-14.79,7.44,0,13.56,4.08,15.6,11.22l-32.13,4.79Z"/></g><polygon class="cls-1" points="248.84 68.26 260.06 68.26 260.06 20.64 248.84 22.27 248.84 68.26"/><g><path class="cls-1" d="M247.7,4.6c1.57-3.8,5.93-5.6,9.73-4.03,3.8,1.57,5.6,5.93,4.03,9.73-1.57,3.8-5.93,5.6-9.73,4.03-3.8-1.57-5.6-5.93-4.03-9.73"/><path class="cls-1" d="M274.39,7.72v-3.44h1.84c1.16,0,1.95,.65,1.95,1.66s-.72,1.77-1.95,1.77h-1.84Zm-.76,3.69h.76v-3h2.21l1.77,3h.8l-1.85-3.18c.94-.29,1.66-1.09,1.66-2.32,0-1.34-1.01-2.31-2.71-2.31h-2.64v7.81Zm2.39,2.75c-4.16,0-6.73-3-6.73-6.65s2.57-6.66,6.66-6.66,6.8,3,6.8,6.62-2.53,6.69-6.73,6.69m0,.69c4.59,0,7.45-3.33,7.45-7.38s-2.89-7.34-7.52-7.34-7.38,3.25-7.38,7.38,2.93,7.34,7.45,7.34"/></g></g><g><g><path class="cls-1" d="M145.63,68.27V31.76c.1-12.14-7.95-20.6-20.29-20.6-7.55,0-13.46,2.75-17.13,9.38h-.71c-3.16-5.61-9.08-9.38-17.03-9.38s-13.26,4.08-15.7,8.77h-.71v-7.25l-11.01,1.65v54.04h11.22V35.43c0-8.26,5.51-13.87,12.54-13.87s12.03,4.9,12.03,12.65v34.06h11.22V35.73c0-8.97,5.61-14.18,12.65-14.18s11.73,4.9,11.73,13.97v32.74h11.22Z"/><path class="cls-1" d="M238.64,68.27V31.76c0-12.14-8.06-20.6-20.29-20.6-7.55,0-13.46,2.75-17.13,9.38h-.71c-3.16-5.61-9.08-9.38-17.03-9.38s-13.26,4.08-15.7,8.77h-.71v-7.33l-11.01,1.65v54.12h11.22V35.43c0-8.26,5.51-13.87,12.54-13.87s12.03,4.9,12.03,12.65v34.06h11.22V35.73c0-8.97,5.61-14.18,12.65-14.18s11.73,4.9,11.73,13.97v32.74h11.22Z"/><path class="cls-1" d="M27.84,11.16C11.93,11.16,0,22.88,0,40.53c0,16.73,11.32,29.17,28.05,29.17,13.77,0,23.66-7.45,26.52-18.26l-11.73,1.84c-2.75,4.39-8.16,7.04-14.48,7.04-9.28,0-15.5-5.51-16.93-13.77l43.65-6.53v-.1c.1-16.01-9.79-28.76-27.23-28.76M11.32,36.55c.1-.82,.1-1.22,.1-1.22,.82-8.77,7.85-14.79,16.42-14.79,7.44,0,13.56,4.08,15.6,11.22l-32.13,4.79Z"/></g><polygon class="cls-1" points="248.84 68.27 260.06 68.27 260.06 20.64 248.84 22.27 248.84 68.27"/><path class="cls-1" d="M247.7,4.6c1.57-3.8,5.93-5.6,9.73-4.03,3.8,1.57,5.6,5.93,4.03,9.73-1.57,3.8-5.93,5.6-9.73,4.03-3.8-1.57-5.6-5.93-4.03-9.73"/><path class="cls-1" d="M274.39,7.72v-3.44h1.84c1.16,0,1.95,.65,1.95,1.66s-.72,1.77-1.95,1.77h-1.84Zm-.76,3.69h.76v-3h2.21l1.77,3h.8l-1.85-3.18c.94-.29,1.66-1.09,1.66-2.32,0-1.34-1.01-2.31-2.71-2.31h-2.64v7.81Zm2.39,2.75c-4.16,0-6.73-3-6.73-6.65s2.57-6.66,6.66-6.66,6.8,3,6.8,6.62-2.53,6.69-6.73,6.69m0,.69c4.59,0,7.45-3.33,7.45-7.38s-2.89-7.34-7.52-7.34-7.38,3.25-7.38,7.38,2.93,7.34,7.45,7.34"/></g><path class="cls-1" d="M340.27,9.38v54.95h-.51l-34.72-54.95h-3.37v58.99h2.53V13.42h.51l34.81,54.95h3.37V9.38h-2.61Zm44.17,2.87h.5l14.83,37.5h-30.25l14.92-37.5Zm-1.52-2.87l-23.68,58.99h2.78l6.57-16.18h32.11l6.57,16.18h2.78l-23.6-58.99h-3.54Zm43.49,58.99h2.53V9.38h-2.53v58.99Zm26.11-58.99v58.99h28.82v-2.36h-26.3V9.38h-2.53Z"/></svg>